# xmcd CD database file
#
# Track frame offsets:
#	150
#	29057
#	71932
#	103695
#	130530
#	171145
#
# Disc length: 2762 seconds
#
# Revision: 0
# Processed by: cddbd v1.4PL0 Copyright (c) Steve Scherf et al.
# Submitted via: CDex 1.50beta10
#
DISCID=520ac806
DTITLE=Andre Previn's Trio Jazz - KING SIZE!
DYEAR=1959
DGENRE=Jazz
TTITLE0=I'll Remember April
TTITLE1=Much Too Late
TTITLE2=You'd Be So Nice to Come Home To
TTITLE3=It Could Happen to You
TTITLE4=Low and Inside
TTITLE5=I'm Beginning to See the Light
EXTD=YEAR: 1959
EXTT0=
EXTT1=
EXTT2=
EXTT3=
EXTT4=
EXTT5=
PLAYORDER=
